<svg width="108" height="114" viewBox="0 0 108 114" fill="none" xmlns="http://www.w3.org/2000/svg">
<path d="M58.0841 4.48535C58.0841 3.40791 57.6561 2.3746 56.8942 1.61273C56.1324 0.850864 55.0991 0.422852 54.0216 0.422852C52.9442 0.422852 51.9109 0.850864 51.149 1.61273C50.3871 2.3746 49.9591 3.40791 49.9591 4.48535V12.502C49.9591 13.5795 50.3871 14.6128 51.149 15.3746C51.9109 16.1365 52.9442 16.5645 54.0216 16.5645C55.0991 16.5645 56.1324 16.1365 56.8942 15.3746C57.6561 14.6128 58.0841 13.5795 58.0841 12.502V4.48535ZM85.7687 47.7645C84.6399 43.3752 82.5903 39.2762 79.7562 35.7395C76.9464 32.1781 73.4222 29.2444 69.4104 27.127C65.4084 25.0264 61.0236 23.7552 56.5187 23.3895C52.001 23.0501 47.4622 23.659 43.1937 25.177C38.9015 26.6737 34.9711 29.0541 31.6562 32.1645C28.377 35.2224 25.7432 38.9059 23.9104 42.9979C22.1191 47.1528 21.215 51.6359 21.2562 56.1604C21.1306 61.3861 22.2488 66.5669 24.5184 71.2757C26.7881 75.9845 30.1442 80.0865 34.3104 83.2437L36.2062 85.0312C37.8312 86.7104 37.8312 86.7104 37.777 90.4479V92.1812C37.7118 93.3797 37.8963 94.5786 38.3187 95.702C38.6979 96.9045 39.3695 98.0041 40.2687 98.8979C40.6804 99.3204 41.1318 99.6995 41.6229 100.035V105.452C41.5337 106.434 41.6398 107.425 41.9352 108.366C42.2305 109.307 42.7092 110.18 43.3436 110.936C43.9781 111.691 44.7557 112.313 45.6317 112.766C46.5078 113.22 47.4649 113.495 48.4479 113.577H59.2812C61.2707 113.411 63.1131 112.463 64.4031 110.939C65.6932 109.415 66.3252 107.442 66.1604 105.452V100.035C66.6494 99.7034 67.1031 99.3222 67.5145 98.8979C68.365 97.9987 69.015 96.9262 69.4104 95.7562C69.8254 94.612 70.0095 93.3969 69.952 92.1812V90.177C69.952 87.1979 69.952 87.1979 71.6312 85.302L73.6895 83.4062C80.6342 78.0052 85.1691 70.0837 86.3104 61.3604C87.1078 56.8421 86.9231 52.205 85.7687 47.7645ZM58.3062 105.344H49.7479V101.931H58.3062V105.344ZM54.027 48.1437C52.26 48.1437 50.5654 48.8456 49.3159 50.0951C48.0665 51.3446 47.3645 53.0392 47.3645 54.8062C47.3645 56.2428 46.7939 57.6205 45.778 58.6363C44.7622 59.6522 43.3845 60.2229 41.9479 60.2229C40.5113 60.2229 39.1335 59.6522 38.1177 58.6363C37.1019 57.6205 36.5312 56.2428 36.5312 54.8062C36.5168 52.5046 36.9595 50.223 37.8337 48.0938C38.7078 45.9646 39.996 44.0302 41.6235 42.4027C43.251 40.7752 45.1855 39.487 47.3147 38.6128C49.4439 37.7387 51.7254 37.296 54.027 37.3104C55.4636 37.3104 56.8414 37.881 57.8572 38.8969C58.873 39.9127 59.4437 41.2904 59.4437 42.727C59.4437 44.1636 58.873 45.5414 57.8572 46.5572C56.8414 47.573 55.4636 48.1437 54.027 48.1437ZM103.644 61.6854H93.7312C92.6538 61.6854 91.6204 61.2573 90.8586 60.4955C90.0967 59.7336 89.6687 58.7003 89.6687 57.6229C89.6687 56.5454 90.0967 55.5121 90.8586 54.7502C91.6204 53.9884 92.6538 53.5604 93.7312 53.5604H103.644C104.721 53.5604 105.754 53.9884 106.516 54.7502C107.278 55.5121 107.706 56.5454 107.706 57.6229C107.706 58.7003 107.278 59.7336 106.516 60.4955C105.754 61.2573 104.721 61.6854 103.644 61.6854ZM83.7104 29.1312C83.1766 29.1337 82.6477 29.0296 82.1547 28.825C81.6618 28.6203 81.2146 28.3193 80.8395 27.9395C80.0788 27.1778 79.6514 26.1453 79.6514 25.0687C79.6514 23.9921 80.0788 22.9596 80.8395 22.1979L87.8812 15.1562C88.6513 14.4386 89.6699 14.0479 90.7224 14.0665C91.7748 14.0851 92.779 14.5114 93.5233 15.2557C94.2676 16.0001 94.694 17.0042 94.7126 18.0567C94.7311 19.1092 94.3405 20.1277 93.6229 20.8979L86.5812 27.9395C86.208 28.3218 85.7612 28.6245 85.2678 28.8293C84.7744 29.0341 84.2446 29.1368 83.7104 29.1312ZM96.1687 96.5145C95.0973 96.486 94.0745 96.0614 93.2979 95.3229L86.2562 88.2812C85.7803 87.8094 85.4284 87.2273 85.232 86.5866C85.0356 85.9459 85.0008 85.2666 85.1305 84.6092C85.2603 83.9518 85.5507 83.3367 85.9758 82.8187C86.4009 82.3007 86.9475 81.8959 87.567 81.6404C88.3103 81.327 89.1308 81.2452 89.9213 81.4056C90.7118 81.566 91.4355 81.9612 91.9979 82.5395L99.0395 89.5812C99.4228 89.9546 99.7274 90.4011 99.9354 90.8941C100.143 91.3872 100.251 91.9169 100.251 92.452C100.251 92.9872 100.143 93.5169 99.9354 94.0099C99.7274 94.503 99.4228 94.9494 99.0395 95.3229C98.2784 96.0849 97.2458 96.5136 96.1687 96.5145ZM24.3979 29.1312C23.3208 29.1302 22.2882 28.7016 21.527 27.9395L14.4854 20.8979C13.724 20.1293 13.2991 19.0897 13.3042 18.0079C13.3092 16.926 13.7439 15.8905 14.5125 15.1291C15.281 14.3677 16.3206 13.9428 17.4024 13.9479C18.4843 13.953 19.5198 14.3876 20.2812 15.1562L27.2687 22.1979C27.8361 22.766 28.2225 23.4895 28.3789 24.2771C28.5354 25.0647 28.4549 25.881 28.1478 26.6229C27.8406 27.3647 27.3204 27.999 26.653 28.4454C25.9856 28.8918 25.2008 29.1305 24.3979 29.1312ZM11.9937 96.5145C11.4581 96.53 10.9254 96.4318 10.4306 96.2264C9.93572 96.021 9.49003 95.713 9.12287 95.3229C8.36209 94.5611 7.93478 93.5286 7.93478 92.452C7.93478 91.3755 8.36209 90.3429 9.12287 89.5812L16.1645 82.5395C16.9346 81.8219 17.9532 81.4313 19.0057 81.4498C20.0582 81.4684 21.0623 81.8947 21.8067 82.6391C22.551 83.3834 22.9773 84.3876 22.9959 85.44C23.0145 86.4925 22.6238 87.5111 21.9062 88.2812L14.9187 95.377C14.1201 96.1083 13.0766 96.5141 11.9937 96.5145ZM14.2687 61.6854H4.3562C3.27876 61.6854 2.24545 61.2573 1.48358 60.4955C0.721713 59.7336 0.293701 58.7003 0.293701 57.6229C0.293701 56.5454 0.721713 55.5121 1.48358 54.7502C2.24545 53.9884 3.27876 53.5604 4.3562 53.5604H14.2687C15.3461 53.5604 16.3795 53.9884 17.1413 54.7502C17.9032 55.5121 18.3312 56.5454 18.3312 57.6229C18.3312 58.7003 17.9032 59.7336 17.1413 60.4955C16.3795 61.2573 15.3461 61.6854 14.2687 61.6854Z" fill="#EFDE5E"/>
</svg>
