<svg width="83" height="83" viewBox="0 0 83 83" fill="none" xmlns="http://www.w3.org/2000/svg">
<path fill-rule="evenodd" clip-rule="evenodd" d="M41.5 82.375C46.8678 82.375 52.183 81.3177 57.1422 79.2636C62.1014 77.2094 66.6074 74.1986 70.403 70.403C74.1986 66.6074 77.2094 62.1014 79.2636 57.1422C81.3177 52.183 82.375 46.8678 82.375 41.5C82.375 36.1322 81.3177 30.817 79.2636 25.8578C77.2094 20.8986 74.1986 16.3926 70.403 12.597C66.6074 8.80141 62.1014 5.79058 57.1422 3.73642C52.183 1.68226 46.8678 0.625 41.5 0.625C30.6593 0.625 20.2626 4.93146 12.597 12.597C4.93146 20.2626 0.625 30.6593 0.625 41.5C0.625 52.3407 4.93146 62.7374 12.597 70.403C20.2626 78.0685 30.6593 82.375 41.5 82.375ZM40.4463 58.0317L63.1547 30.7817L56.1787 24.9683L36.6495 48.3988L26.5443 38.289L20.1224 44.711L33.7474 58.336L37.2626 61.8512L40.4463 58.0317Z" fill="#D4FF93"/>
</svg>
