<svg width="28" height="28" viewBox="0 0 28 28" fill="none" xmlns="http://www.w3.org/2000/svg">
<path d="M14.0069 16.8315C13.7882 16.8315 13.6132 16.6565 13.6132 16.4377V14.8671C13.6132 14.8388 13.6041 14.8113 13.5873 14.7886C13.5704 14.7659 13.5466 14.7492 13.5195 14.7411L9.8883 13.6535C9.855 13.6434 9.82708 13.6205 9.81068 13.5898C9.79427 13.5591 9.79072 13.5232 9.8008 13.4899L9.95305 12.9806C9.96316 12.9475 9.98594 12.9198 10.0164 12.9034C10.0469 12.887 10.0826 12.8833 10.1158 12.8931L13.4434 13.8897C13.463 13.8956 13.4838 13.8968 13.5039 13.8932C13.5241 13.8897 13.5431 13.8814 13.5595 13.8692C13.5759 13.8569 13.5893 13.841 13.5984 13.8227C13.6076 13.8044 13.6123 13.7842 13.6123 13.7637V13.699C13.6123 12.824 13.8573 11.9577 14.3473 11.2227C14.468 11.0413 14.5713 10.852 14.657 10.6549C14.6641 10.6382 14.6675 10.6203 14.6671 10.6023C14.6666 10.5842 14.6624 10.5665 14.6546 10.5502C14.6469 10.5339 14.6357 10.5195 14.622 10.5078C14.6082 10.4961 14.5921 10.4875 14.5748 10.4825L10.4124 9.23473C10.3791 9.22463 10.3512 9.20172 10.3348 9.17103C10.3184 9.14035 10.3148 9.10441 10.3249 9.07111L10.4772 8.56186C10.4873 8.52857 10.5102 8.50065 10.5409 8.48424C10.5716 8.46783 10.6075 8.46428 10.6408 8.47436L14.7752 9.71423C14.7929 9.71974 14.8116 9.72132 14.8301 9.71885C14.8485 9.71637 14.8661 9.70991 14.8818 9.69992C14.8975 9.68992 14.9107 9.67663 14.9207 9.66096C14.9307 9.6453 14.9372 9.62765 14.9397 9.60923C14.9589 9.45407 14.9685 9.29773 14.9685 9.14023V7.43398C14.9685 7.39918 14.9824 7.36579 15.007 7.34118C15.0316 7.31656 15.065 7.30273 15.0998 7.30273H15.6248C15.6596 7.30273 15.693 7.31656 15.7176 7.34118C15.7422 7.36579 15.756 7.39918 15.756 7.43398V9.14023L15.7543 9.25398C15.7536 9.27528 15.758 9.29644 15.767 9.31574C15.7761 9.33503 15.7895 9.35193 15.8063 9.36505C15.8231 9.37818 15.8428 9.38716 15.8637 9.39127C15.8846 9.39539 15.9062 9.39452 15.9267 9.38873L19.0154 8.46473C19.032 8.45976 19.0493 8.4581 19.0665 8.45985C19.0837 8.4616 19.1004 8.46673 19.1156 8.47494C19.1308 8.48315 19.1442 8.49429 19.1551 8.5077C19.166 8.52111 19.1741 8.53654 19.179 8.55311L19.3313 9.06323C19.3411 9.09642 19.3374 9.13214 19.321 9.16262C19.3047 9.1931 19.2769 9.21587 19.2438 9.22598L15.6738 10.2935C15.6523 10.2999 15.6328 10.3117 15.6172 10.3278C15.6016 10.3439 15.5903 10.3637 15.5845 10.3854C15.4591 10.8287 15.2658 11.2499 15.0114 11.634C14.6089 12.2465 14.3989 12.964 14.3989 13.699V14.3911C14.3989 14.4786 14.4838 14.5425 14.5687 14.5171L17.8875 13.5222C17.9208 13.5125 17.9567 13.5163 17.9872 13.5328C18.0177 13.5494 18.0404 13.5774 18.0503 13.6106L18.2034 14.1199C18.2084 14.1364 18.2101 14.1538 18.2083 14.171C18.2066 14.1881 18.2014 14.2048 18.1932 14.22C18.185 14.2352 18.1739 14.2487 18.1605 14.2595C18.147 14.2704 18.1316 14.2786 18.115 14.2835L14.4925 15.3685C14.4654 15.3766 14.4417 15.3932 14.4248 15.4159C14.408 15.4386 14.3989 15.4662 14.3989 15.4945V16.4377C14.3989 16.6565 14.2239 16.8315 14.0052 16.8315" fill="#497426"/>
<path d="M14.007 16.8315C13.7883 16.8315 13.6133 16.6565 13.6133 16.4377V13.699C13.6133 12.824 13.8583 11.9577 14.3483 11.2227C14.7595 10.6015 14.9695 9.88398 14.9695 9.14023V7.30273H15.757V9.14023C15.757 10.0327 15.5033 10.8902 15.0133 11.634C14.6108 12.2465 14.4008 12.964 14.4008 13.699V16.4377C14.4008 16.6565 14.2258 16.8315 14.007 16.8315Z" fill="#497426"/>
<path d="M14.007 16.8315C13.7883 16.8315 13.6133 16.6565 13.6133 16.4377V13.699C13.6133 12.824 13.8583 11.9577 14.3483 11.2227C14.7595 10.6015 14.9695 9.88398 14.9695 9.14023V7.30273H15.757V9.14023C15.757 10.0327 15.5033 10.8902 15.0133 11.634C14.6108 12.2465 14.4008 12.964 14.4008 13.699V16.4377C14.4008 16.6565 14.2258 16.8315 14.007 16.8315Z" fill="url(#paint0_linear_369_1917)"/>
<path d="M9.87695 13.2349L14.112 14.5036" stroke="#497426" stroke-width="0.454" stroke-miterlimit="10"/>
<path d="M9.87695 13.2349L14.112 14.5036" stroke="url(#paint1_linear_369_1917)" stroke-width="0.454" stroke-miterlimit="10"/>
<path d="M10.4019 8.81641L15.0131 10.1989" stroke="#497426" stroke-width="0.454" stroke-miterlimit="10"/>
<path d="M10.4019 8.81641L15.0131 10.1989" stroke="url(#paint2_linear_369_1917)" stroke-width="0.454" stroke-miterlimit="10"/>
<path d="M18.1273 13.8652L13.8923 15.134" stroke="#497426" stroke-width="0.454" stroke-miterlimit="10"/>
<path d="M18.1273 13.8652L13.8923 15.134" stroke="url(#paint3_radial_369_1917)" stroke-width="0.454" stroke-miterlimit="10"/>
<path d="M18.1273 13.8652L13.8923 15.134" stroke="url(#paint4_linear_369_1917)" stroke-width="0.454" stroke-miterlimit="10"/>
<path d="M19.2561 8.80762L15.0999 10.0501" stroke="#497426" stroke-width="0.454" stroke-miterlimit="10"/>
<path d="M19.2561 8.80762L15.0999 10.0501" stroke="url(#paint5_linear_369_1917)" stroke-width="0.454" stroke-miterlimit="10"/>
<path d="M19.2561 8.80762L15.0999 10.0501" stroke="url(#paint6_linear_369_1917)" stroke-width="0.454" stroke-miterlimit="10"/>
<g filter="url(#filter0_f_369_1917)">
<path d="M12.7766 9.41992L15.1479 10.1304" stroke="url(#paint7_linear_369_1917)" stroke-width="0.125" stroke-linecap="round"/>
</g>
<g filter="url(#filter1_f_369_1917)">
<path d="M11.5359 13.6445L13.908 14.355" stroke="url(#paint8_linear_369_1917)" stroke-width="0.125" stroke-linecap="round"/>
</g>
<g filter="url(#filter2_f_369_1917)">
<path d="M16.1988 14.4233L13.8267 15.1338" stroke="url(#paint9_linear_369_1917)" stroke-width="0.125" stroke-linecap="round"/>
</g>
<g filter="url(#filter3_f_369_1917)">
<path d="M17.3844 9.2959L15.0132 10.0064" stroke="url(#paint10_linear_369_1917)" stroke-width="0.125" stroke-linecap="round"/>
</g>
<g filter="url(#filter4_f_369_1917)">
<path d="M15.3633 7.8623V9.31655C15.363 9.86434 15.2342 10.4044 14.9871 10.8933L14.4866 11.8856C14.1783 12.4967 14.0176 13.1716 14.0176 13.8561V16.0926" stroke="url(#paint11_linear_369_1917)" stroke-width="0.125" stroke-linecap="round"/>
</g>
<path d="M19.0207 17.4961C17.5938 16.3655 15.8274 15.749 14.0069 15.7461C12.1257 15.7461 10.3844 16.4023 8.99316 17.4961H19.0207Z" fill="url(#paint12_radial_369_1917)"/>
<path d="M15.2757 1.80752C14.8532 2.21474 14.5151 2.70122 14.2807 3.23918C14.0463 3.77713 13.9202 4.356 13.9097 4.9427C13.8991 5.5294 14.0043 6.11244 14.2191 6.65848C14.434 7.20452 14.7544 7.70286 15.162 8.12502C15.2407 8.20377 15.372 8.21252 15.4507 8.13377C15.8732 7.72656 16.2113 7.24007 16.4457 6.70212C16.6801 6.16417 16.8062 5.5853 16.8168 4.9986C16.8273 4.41189 16.7222 3.82886 16.5073 3.28282C16.2924 2.73678 15.972 2.23843 15.5645 1.81627C15.4857 1.72877 15.3545 1.72877 15.2757 1.80752Z" fill="url(#paint13_radial_369_1917)"/>
<g filter="url(#filter5_f_369_1917)">
<path d="M15.302 2.38056C14.0753 3.78494 14.0394 6.09931 15.2233 7.55269C15.2784 7.61744 15.3685 7.62444 15.4236 7.56056C16.6504 6.15619 16.6863 3.84181 15.5024 2.38756C15.4473 2.31669 15.3571 2.31669 15.302 2.38056Z" fill="url(#paint14_linear_369_1917)"/>
</g>
<g filter="url(#filter6_i_369_1917)">
<path d="M9.32572 10.0852L6.47234 9.22947C6.44517 9.22113 6.41659 9.21838 6.38833 9.22141C6.36007 9.22443 6.33271 9.23316 6.30793 9.24707C6.28314 9.26098 6.26143 9.27977 6.24412 9.30232C6.22681 9.32486 6.21426 9.35068 6.20722 9.37822C6.02522 10.1832 6.15434 11.0272 6.56865 11.7409C6.98297 12.4546 7.65184 12.9853 8.44109 13.2265L11.2953 14.0831C11.3225 14.0914 11.3511 14.0942 11.3794 14.0912C11.4076 14.0881 11.435 14.0794 11.4598 14.0655C11.4845 14.0516 11.5063 14.0328 11.5236 14.0103C11.5409 13.9877 11.5534 13.9619 11.5605 13.9343C11.7472 13.1289 11.62 12.2825 11.2049 11.5675C10.7898 10.8524 10.1178 10.3224 9.32572 10.0852Z" fill="#7AAD33"/>
<path d="M9.32572 10.0852L6.47234 9.22947C6.44517 9.22113 6.41659 9.21838 6.38833 9.22141C6.36007 9.22443 6.33271 9.23316 6.30793 9.24707C6.28314 9.26098 6.26143 9.27977 6.24412 9.30232C6.22681 9.32486 6.21426 9.35068 6.20722 9.37822C6.02522 10.1832 6.15434 11.0272 6.56865 11.7409C6.98297 12.4546 7.65184 12.9853 8.44109 13.2265L11.2953 14.0831C11.3225 14.0914 11.3511 14.0942 11.3794 14.0912C11.4076 14.0881 11.435 14.0794 11.4598 14.0655C11.4845 14.0516 11.5063 14.0328 11.5236 14.0103C11.5409 13.9877 11.5534 13.9619 11.5605 13.9343C11.7472 13.1289 11.62 12.2825 11.2049 11.5675C10.7898 10.8524 10.1178 10.3224 9.32572 10.0852Z" fill="url(#paint15_radial_369_1917)"/>
</g>
<g filter="url(#filter7_i_369_1917)">
<path d="M10.6119 5.89394L7.75942 5.03819C7.73207 5.02973 7.70329 5.02695 7.67483 5.03002C7.64638 5.03309 7.61885 5.04194 7.59394 5.05604C7.56902 5.07013 7.54726 5.08917 7.52997 5.11198C7.51269 5.13479 7.50025 5.1609 7.49342 5.18869C7.31295 5.9945 7.4438 6.83875 7.85973 7.55213C8.27565 8.26551 8.94589 8.79527 9.73604 9.03519L12.5885 9.89094C12.6158 9.89942 12.6444 9.90227 12.6728 9.89932C12.7012 9.89636 12.7286 9.88765 12.7535 9.87374C12.7784 9.85982 12.8002 9.84098 12.8176 9.81836C12.8349 9.79574 12.8475 9.76983 12.8545 9.74219C13.0376 8.93587 12.9078 8.09013 12.4914 7.37583C12.0749 6.66152 11.4029 6.13189 10.611 5.89394" fill="#7AAD33"/>
<path d="M10.6119 5.89394L7.75942 5.03819C7.73207 5.02973 7.70329 5.02695 7.67483 5.03002C7.64638 5.03309 7.61885 5.04194 7.59394 5.05604C7.56902 5.07013 7.54726 5.08917 7.52997 5.11198C7.51269 5.13479 7.50025 5.1609 7.49342 5.18869C7.31295 5.9945 7.4438 6.83875 7.85973 7.55213C8.27565 8.26551 8.94589 8.79527 9.73604 9.03519L12.5885 9.89094C12.6158 9.89942 12.6444 9.90227 12.6728 9.89932C12.7012 9.89636 12.7286 9.88765 12.7535 9.87374C12.7784 9.85982 12.8002 9.84098 12.8176 9.81836C12.8349 9.79574 12.8475 9.76983 12.8545 9.74219C13.0376 8.93587 12.9078 8.09013 12.4914 7.37583C12.0749 6.66152 11.4029 6.13189 10.611 5.89394" fill="url(#paint16_radial_369_1917)"/>
</g>
<g filter="url(#filter8_i_369_1917)">
<path d="M17.9708 10.9251L20.8233 10.0693C20.8505 10.061 20.879 10.0582 20.9073 10.0613C20.9356 10.0643 20.9629 10.073 20.9877 10.0869C21.0125 10.1008 21.0342 10.1196 21.0515 10.1422C21.0688 10.1647 21.0814 10.1905 21.0884 10.2181C21.2704 11.023 21.1413 11.867 20.727 12.5808C20.3127 13.2945 19.6438 13.8252 18.8545 14.0663L16.0003 14.9229C15.9731 14.9313 15.9445 14.934 15.9163 14.931C15.888 14.928 15.8607 14.9193 15.8359 14.9053C15.8111 14.8914 15.7894 14.8726 15.7721 14.8501C15.7547 14.8276 15.7422 14.8017 15.7352 14.7742C15.5493 13.9687 15.677 13.1226 16.0922 12.4078C16.5074 11.6929 17.179 11.1628 17.9708 10.9251Z" fill="#7AAD33"/>
<path d="M17.9708 10.9251L20.8233 10.0693C20.8505 10.061 20.879 10.0582 20.9073 10.0613C20.9356 10.0643 20.9629 10.073 20.9877 10.0869C21.0125 10.1008 21.0342 10.1196 21.0515 10.1422C21.0688 10.1647 21.0814 10.1905 21.0884 10.2181C21.2704 11.023 21.1413 11.867 20.727 12.5808C20.3127 13.2945 19.6438 13.8252 18.8545 14.0663L16.0003 14.9229C15.9731 14.9313 15.9445 14.934 15.9163 14.931C15.888 14.928 15.8607 14.9193 15.8359 14.9053C15.8111 14.8914 15.7894 14.8726 15.7721 14.8501C15.7547 14.8276 15.7422 14.8017 15.7352 14.7742C15.5493 13.9687 15.677 13.1226 16.0922 12.4078C16.5074 11.6929 17.179 11.1628 17.9708 10.9251Z" fill="url(#paint17_radial_369_1917)"/>
<path d="M17.9708 10.9251L20.8233 10.0693C20.8505 10.061 20.879 10.0582 20.9073 10.0613C20.9356 10.0643 20.9629 10.073 20.9877 10.0869C21.0125 10.1008 21.0342 10.1196 21.0515 10.1422C21.0688 10.1647 21.0814 10.1905 21.0884 10.2181C21.2704 11.023 21.1413 11.867 20.727 12.5808C20.3127 13.2945 19.6438 13.8252 18.8545 14.0663L16.0003 14.9229C15.9731 14.9313 15.9445 14.934 15.9163 14.931C15.888 14.928 15.8607 14.9193 15.8359 14.9053C15.8111 14.8914 15.7894 14.8726 15.7721 14.8501C15.7547 14.8276 15.7422 14.8017 15.7352 14.7742C15.5493 13.9687 15.677 13.1226 16.0922 12.4078C16.5074 11.6929 17.179 11.1628 17.9708 10.9251Z" fill="url(#paint18_radial_369_1917)"/>
</g>
<g filter="url(#filter9_i_369_1917)">
<path d="M18.6882 5.99001L21.5407 5.13426C21.5679 5.12591 21.5965 5.12317 21.6247 5.12619C21.653 5.12922 21.6804 5.13795 21.7051 5.15186C21.7299 5.16576 21.7516 5.18456 21.769 5.2071C21.7863 5.22965 21.7988 5.25547 21.8059 5.28301C21.9879 6.08796 21.8587 6.93196 21.4444 7.6457C21.0301 8.35943 20.3612 8.8901 19.572 9.13126L16.7177 9.98788C16.6906 9.99623 16.662 9.99897 16.6337 9.99595C16.6055 9.99292 16.5781 9.98419 16.5533 9.97028C16.5285 9.95638 16.5068 9.93758 16.4895 9.91504C16.4722 9.89249 16.4596 9.86667 16.4526 9.83913C16.2646 9.03348 16.3913 8.18645 16.8068 7.47106C17.2223 6.75568 17.8953 6.22592 18.6882 5.99001Z" fill="#7AAD33"/>
<path d="M18.6882 5.99001L21.5407 5.13426C21.5679 5.12591 21.5965 5.12317 21.6247 5.12619C21.653 5.12922 21.6804 5.13795 21.7051 5.15186C21.7299 5.16576 21.7516 5.18456 21.769 5.2071C21.7863 5.22965 21.7988 5.25547 21.8059 5.28301C21.9879 6.08796 21.8587 6.93196 21.4444 7.6457C21.0301 8.35943 20.3612 8.8901 19.572 9.13126L16.7177 9.98788C16.6906 9.99623 16.662 9.99897 16.6337 9.99595C16.6055 9.99292 16.5781 9.98419 16.5533 9.97028C16.5285 9.95638 16.5068 9.93758 16.4895 9.91504C16.4722 9.89249 16.4596 9.86667 16.4526 9.83913C16.2646 9.03348 16.3913 8.18645 16.8068 7.47106C17.2223 6.75568 17.8953 6.22592 18.6882 5.99001Z" fill="url(#paint19_radial_369_1917)"/>
<path d="M18.6882 5.99001L21.5407 5.13426C21.5679 5.12591 21.5965 5.12317 21.6247 5.12619C21.653 5.12922 21.6804 5.13795 21.7051 5.15186C21.7299 5.16576 21.7516 5.18456 21.769 5.2071C21.7863 5.22965 21.7988 5.25547 21.8059 5.28301C21.9879 6.08796 21.8587 6.93196 21.4444 7.6457C21.0301 8.35943 20.3612 8.8901 19.572 9.13126L16.7177 9.98788C16.6906 9.99623 16.662 9.99897 16.6337 9.99595C16.6055 9.99292 16.5781 9.98419 16.5533 9.97028C16.5285 9.95638 16.5068 9.93758 16.4895 9.91504C16.4722 9.89249 16.4596 9.86667 16.4526 9.83913C16.2646 9.03348 16.3913 8.18645 16.8068 7.47106C17.2223 6.75568 17.8953 6.22592 18.6882 5.99001Z" fill="url(#paint20_radial_369_1917)"/>
</g>
<path d="M7.8811 20.9961L8.5636 25.0998C8.67735 25.7648 9.2461 26.2461 9.9111 26.2461H18.0924C18.7574 26.2461 19.3349 25.7648 19.4399 25.0998L20.1311 20.9961H7.8811Z" fill="url(#paint21_radial_369_1917)"/>
<path d="M7.8811 20.9961L8.5636 25.0998C8.67735 25.7648 9.2461 26.2461 9.9111 26.2461H18.0924C18.7574 26.2461 19.3349 25.7648 19.4399 25.0998L20.1311 20.9961H7.8811Z" fill="url(#paint22_linear_369_1917)"/>
<path d="M7.8811 20.9961L8.5636 25.0998C8.67735 25.7648 9.2461 26.2461 9.9111 26.2461H18.0924C18.7574 26.2461 19.3349 25.7648 19.4399 25.0998L20.1311 20.9961H7.8811Z" fill="url(#paint23_linear_369_1917)"/>
<path d="M7.8811 20.9961L8.5636 25.0998C8.67735 25.7648 9.2461 26.2461 9.9111 26.2461H18.0924C18.7574 26.2461 19.3349 25.7648 19.4399 25.0998L20.1311 20.9961H7.8811Z" fill="url(#paint24_linear_369_1917)"/>
<path d="M20.5686 20.9961H7.4436C7.1986 20.9961 7.0061 20.8036 7.0061 20.5586V17.9336C7.0061 17.6886 7.1986 17.4961 7.4436 17.4961H20.5686C20.8136 17.4961 21.0061 17.6886 21.0061 17.9336V20.5586C21.0061 20.8036 20.8136 20.9961 20.5686 20.9961Z" fill="url(#paint25_radial_369_1917)"/>
<path d="M20.5686 20.9961H7.4436C7.1986 20.9961 7.0061 20.8036 7.0061 20.5586V17.9336C7.0061 17.6886 7.1986 17.4961 7.4436 17.4961H20.5686C20.8136 17.4961 21.0061 17.6886 21.0061 17.9336V20.5586C21.0061 20.8036 20.8136 20.9961 20.5686 20.9961Z" fill="url(#paint26_linear_369_1917)"/>
<path d="M20.5686 20.9961H7.4436C7.1986 20.9961 7.0061 20.8036 7.0061 20.5586V17.9336C7.0061 17.6886 7.1986 17.4961 7.4436 17.4961H20.5686C20.8136 17.4961 21.0061 17.6886 21.0061 17.9336V20.5586C21.0061 20.8036 20.8136 20.9961 20.5686 20.9961Z" fill="url(#paint27_linear_369_1917)"/>
<path d="M20.5686 20.9961H7.4436C7.1986 20.9961 7.0061 20.8036 7.0061 20.5586V17.9336C7.0061 17.6886 7.1986 17.4961 7.4436 17.4961H20.5686C20.8136 17.4961 21.0061 17.6886 21.0061 17.9336V20.5586C21.0061 20.8036 20.8136 20.9961 20.5686 20.9961Z" fill="url(#paint28_linear_369_1917)"/>
<g filter="url(#filter10_f_369_1917)">
<path d="M9.67041 17.9126H20.5292" stroke="url(#paint29_linear_369_1917)" stroke-width="0.2" stroke-linecap="round"/>
</g>
<g filter="url(#filter11_f_369_1917)">
<path d="M15.4717 2.44873C15.8873 3.15748 16.5611 4.71061 15.9127 6.87536" stroke="url(#paint30_linear_369_1917)" stroke-width="0.25" stroke-linecap="round"/>
</g>
<g filter="url(#filter12_f_369_1917)">
<path d="M9.76147 6.0835L10.7292 6.4125C10.9672 6.49387 11.2008 6.59625 11.3942 6.75725C11.8247 7.11687 12.3725 7.76875 12.4416 8.59912" stroke="url(#paint31_radial_369_1917)" stroke-width="0.2" stroke-linecap="round"/>
</g>
<g filter="url(#filter13_f_369_1917)">
<path d="M8.53638 10.4595L9.50413 10.7885C9.74213 10.8698 9.97575 10.9713 10.1691 11.1323C10.5996 11.4928 11.1474 12.1447 11.2165 12.9751" stroke="url(#paint32_radial_369_1917)" stroke-width="0.2" stroke-linecap="round"/>
</g>
<defs>
<filter id="filter0_f_369_1917" x="12.5891" y="9.23242" width="2.74634" height="1.08545" filterUnits="userSpaceOnUse" color-interpolation-filters="sRGB">
<feFlood flood-opacity="0" result="BackgroundImageFix"/>
<feBlend mode="normal" in="SourceGraphic" in2="BackgroundImageFix" result="shape"/>
<feGaussianBlur stdDeviation="0.0625" result="effect1_foregroundBlur_369_1917"/>
</filter>
<filter id="filter1_f_369_1917" x="11.3484" y="13.457" width="2.74707" height="1.08545" filterUnits="userSpaceOnUse" color-interpolation-filters="sRGB">
<feFlood flood-opacity="0" result="BackgroundImageFix"/>
<feBlend mode="normal" in="SourceGraphic" in2="BackgroundImageFix" result="shape"/>
<feGaussianBlur stdDeviation="0.0625" result="effect1_foregroundBlur_369_1917"/>
</filter>
<filter id="filter2_f_369_1917" x="13.6392" y="14.2358" width="2.74707" height="1.08545" filterUnits="userSpaceOnUse" color-interpolation-filters="sRGB">
<feFlood flood-opacity="0" result="BackgroundImageFix"/>
<feBlend mode="normal" in="SourceGraphic" in2="BackgroundImageFix" result="shape"/>
<feGaussianBlur stdDeviation="0.0625" result="effect1_foregroundBlur_369_1917"/>
</filter>
<filter id="filter3_f_369_1917" x="14.8257" y="9.1084" width="2.74634" height="1.08545" filterUnits="userSpaceOnUse" color-interpolation-filters="sRGB">
<feFlood flood-opacity="0" result="BackgroundImageFix"/>
<feBlend mode="normal" in="SourceGraphic" in2="BackgroundImageFix" result="shape"/>
<feGaussianBlur stdDeviation="0.0625" result="effect1_foregroundBlur_369_1917"/>
</filter>
<filter id="filter4_f_369_1917" x="13.8301" y="7.6748" width="1.7207" height="8.60547" filterUnits="userSpaceOnUse" color-interpolation-filters="sRGB">
<feFlood flood-opacity="0" result="BackgroundImageFix"/>
<feBlend mode="normal" in="SourceGraphic" in2="BackgroundImageFix" result="shape"/>
<feGaussianBlur stdDeviation="0.0625" result="effect1_foregroundBlur_369_1917"/>
</filter>
<filter id="filter5_f_369_1917" x="13.8582" y="1.8335" width="3.00928" height="6.27148" filterUnits="userSpaceOnUse" color-interpolation-filters="sRGB">
<feFlood flood-opacity="0" result="BackgroundImageFix"/>
<feBlend mode="normal" in="SourceGraphic" in2="BackgroundImageFix" result="shape"/>
<feGaussianBlur stdDeviation="0.25" result="effect1_foregroundBlur_369_1917"/>
</filter>
<filter id="filter6_i_369_1917" x="6.12671" y="9.22021" width="5.51782" height="4.87207" filterUnits="userSpaceOnUse" color-interpolation-filters="sRGB">
<feFlood flood-opacity="0" result="BackgroundImageFix"/>
<feBlend mode="normal" in="SourceGraphic" in2="BackgroundImageFix" result="shape"/>
<feColorMatrix in="SourceAlpha" type="matrix" values="0 0 0 0 0 0 0 0 0 0 0 0 0 0 0 0 0 0 127 0" result="hardAlpha"/>
<feOffset/>
<feGaussianBlur stdDeviation="0.0625"/>
<feComposite in2="hardAlpha" operator="arithmetic" k2="-1" k3="1"/>
<feColorMatrix type="matrix" values="0 0 0 0 0.713726 0 0 0 0 0.784314 0 0 0 0 0.647059 0 0 0 1 0"/>
<feBlend mode="normal" in2="shape" result="effect1_innerShadow_369_1917"/>
</filter>
<filter id="filter7_i_369_1917" x="7.41431" y="5.02881" width="5.52124" height="4.87158" filterUnits="userSpaceOnUse" color-interpolation-filters="sRGB">
<feFlood flood-opacity="0" result="BackgroundImageFix"/>
<feBlend mode="normal" in="SourceGraphic" in2="BackgroundImageFix" result="shape"/>
<feColorMatrix in="SourceAlpha" type="matrix" values="0 0 0 0 0 0 0 0 0 0 0 0 0 0 0 0 0 0 127 0" result="hardAlpha"/>
<feOffset/>
<feGaussianBlur stdDeviation="0.0625"/>
<feComposite in2="hardAlpha" operator="arithmetic" k2="-1" k3="1"/>
<feColorMatrix type="matrix" values="0 0 0 0 0.713726 0 0 0 0 0.784314 0 0 0 0 0.647059 0 0 0 1 0"/>
<feBlend mode="normal" in2="shape" result="effect1_innerShadow_369_1917"/>
</filter>
<filter id="filter8_i_369_1917" x="15.6519" y="10.0601" width="5.51709" height="4.87207" filterUnits="userSpaceOnUse" color-interpolation-filters="sRGB">
<feFlood flood-opacity="0" result="BackgroundImageFix"/>
<feBlend mode="normal" in="SourceGraphic" in2="BackgroundImageFix" result="shape"/>
<feColorMatrix in="SourceAlpha" type="matrix" values="0 0 0 0 0 0 0 0 0 0 0 0 0 0 0 0 0 0 127 0" result="hardAlpha"/>
<feOffset/>
<feGaussianBlur stdDeviation="0.0625"/>
<feComposite in2="hardAlpha" operator="arithmetic" k2="-1" k3="1"/>
<feColorMatrix type="matrix" values="0 0 0 0 0.713726 0 0 0 0 0.784314 0 0 0 0 0.647059 0 0 0 1 0"/>
<feBlend mode="normal" in2="shape" result="effect1_innerShadow_369_1917"/>
</filter>
<filter id="filter9_i_369_1917" x="16.3677" y="5.125" width="5.5188" height="4.87207" filterUnits="userSpaceOnUse" color-interpolation-filters="sRGB">
<feFlood flood-opacity="0" result="BackgroundImageFix"/>
<feBlend mode="normal" in="SourceGraphic" in2="BackgroundImageFix" result="shape"/>
<feColorMatrix in="SourceAlpha" type="matrix" values="0 0 0 0 0 0 0 0 0 0 0 0 0 0 0 0 0 0 127 0" result="hardAlpha"/>
<feOffset/>
<feGaussianBlur stdDeviation="0.0625"/>
<feComposite in2="hardAlpha" operator="arithmetic" k2="-1" k3="1"/>
<feColorMatrix type="matrix" values="0 0 0 0 0.713726 0 0 0 0 0.784314 0 0 0 0 0.647059 0 0 0 1 0"/>
<feBlend mode="normal" in2="shape" result="effect1_innerShadow_369_1917"/>
</filter>
<filter id="filter10_f_369_1917" x="9.42031" y="17.6625" width="11.3588" height="0.500195" filterUnits="userSpaceOnUse" color-interpolation-filters="sRGB">
<feFlood flood-opacity="0" result="BackgroundImageFix"/>
<feBlend mode="normal" in="SourceGraphic" in2="BackgroundImageFix" result="shape"/>
<feGaussianBlur stdDeviation="0.075" result="effect1_foregroundBlur_369_1917"/>
</filter>
<filter id="filter11_f_369_1917" x="15.0467" y="2.02373" width="1.56021" height="5.27676" filterUnits="userSpaceOnUse" color-interpolation-filters="sRGB">
<feFlood flood-opacity="0" result="BackgroundImageFix"/>
<feBlend mode="normal" in="SourceGraphic" in2="BackgroundImageFix" result="shape"/>
<feGaussianBlur stdDeviation="0.15" result="effect1_foregroundBlur_369_1917"/>
</filter>
<filter id="filter12_f_369_1917" x="9.46138" y="5.7834" width="3.28013" height="3.11582" filterUnits="userSpaceOnUse" color-interpolation-filters="sRGB">
<feFlood flood-opacity="0" result="BackgroundImageFix"/>
<feBlend mode="normal" in="SourceGraphic" in2="BackgroundImageFix" result="shape"/>
<feGaussianBlur stdDeviation="0.1" result="effect1_foregroundBlur_369_1917"/>
</filter>
<filter id="filter13_f_369_1917" x="8.23628" y="10.1594" width="3.28013" height="3.11582" filterUnits="userSpaceOnUse" color-interpolation-filters="sRGB">
<feFlood flood-opacity="0" result="BackgroundImageFix"/>
<feBlend mode="normal" in="SourceGraphic" in2="BackgroundImageFix" result="shape"/>
<feGaussianBlur stdDeviation="0.1" result="effect1_foregroundBlur_369_1917"/>
</filter>
<linearGradient id="paint0_linear_369_1917" x1="14.9923" y1="7.82773" x2="14.9923" y2="8.49011" gradientUnits="userSpaceOnUse">
<stop stop-color="#3F6928"/>
<stop offset="1" stop-color="#3F6928" stop-opacity="0"/>
</linearGradient>
<linearGradient id="paint1_linear_369_1917" x1="11.3478" y1="14.27" x2="11.5482" y2="13.7555" gradientUnits="userSpaceOnUse">
<stop stop-color="#4A5B3B"/>
<stop offset="1" stop-color="#4A5B3B" stop-opacity="0"/>
</linearGradient>
<linearGradient id="paint2_linear_369_1917" x1="12.0976" y1="10.0248" x2="12.3409" y2="9.35366" gradientUnits="userSpaceOnUse">
<stop stop-color="#4A5B3B"/>
<stop offset="1" stop-color="#4A5B3B" stop-opacity="0"/>
</linearGradient>
<radialGradient id="paint3_radial_369_1917" cx="0" cy="0" r="1" gradientUnits="userSpaceOnUse" gradientTransform="translate(16.0097 14.8284) rotate(163.277) scale(1.06339 1.6356)">
<stop stop-color="#4A5B3B"/>
<stop offset="1" stop-color="#4A5B3B" stop-opacity="0"/>
</radialGradient>
<linearGradient id="paint4_linear_369_1917" x1="15.2188" y1="15.2644" x2="15.1138" y2="14.9415" gradientUnits="userSpaceOnUse">
<stop stop-color="#4A5B3B"/>
<stop offset="1" stop-color="#4A5B3B" stop-opacity="0"/>
</linearGradient>
<linearGradient id="paint5_linear_369_1917" x1="16.4561" y1="10.1814" x2="16.2995" y2="9.86199" gradientUnits="userSpaceOnUse">
<stop stop-color="#4A5B3B"/>
<stop offset="1" stop-color="#4A5B3B" stop-opacity="0"/>
</linearGradient>
<linearGradient id="paint6_linear_369_1917" x1="16.6915" y1="9.75437" x2="16.0554" y2="9.92762" gradientUnits="userSpaceOnUse">
<stop stop-color="#4A5B3B"/>
<stop offset="1" stop-color="#4A5B3B" stop-opacity="0"/>
</linearGradient>
<linearGradient id="paint7_linear_369_1917" x1="13.2412" y1="9.53542" x2="15.6064" y2="10.3492" gradientUnits="userSpaceOnUse">
<stop stop-color="#608246"/>
<stop offset="1" stop-color="#608246" stop-opacity="0"/>
</linearGradient>
<linearGradient id="paint8_linear_369_1917" x1="12.0014" y1="13.76" x2="15.7936" y2="14.7934" gradientUnits="userSpaceOnUse">
<stop stop-color="#648746"/>
<stop offset="1" stop-color="#648746" stop-opacity="0"/>
</linearGradient>
<linearGradient id="paint9_linear_369_1917" x1="15.7342" y1="14.5388" x2="11.941" y2="15.5722" gradientUnits="userSpaceOnUse">
<stop stop-color="#648746"/>
<stop offset="1" stop-color="#648746" stop-opacity="0"/>
</linearGradient>
<linearGradient id="paint10_linear_369_1917" x1="16.9198" y1="9.41227" x2="13.1276" y2="10.4448" gradientUnits="userSpaceOnUse">
<stop stop-color="#648746"/>
<stop offset="1" stop-color="#648746" stop-opacity="0"/>
</linearGradient>
<linearGradient id="paint11_linear_369_1917" x1="15.0825" y1="9.4198" x2="15.0825" y2="16.8311" gradientUnits="userSpaceOnUse">
<stop stop-color="#608246"/>
<stop offset="1" stop-color="#728C5B"/>
</linearGradient>
<radialGradient id="paint12_radial_369_1917" cx="0" cy="0" r="1" gradientUnits="userSpaceOnUse" gradientTransform="translate(12.7749 17.6921) rotate(-90) scale(2.07891 8.31566)">
<stop stop-color="#774336"/>
<stop offset="1" stop-color="#714F4A"/>
</radialGradient>
<radialGradient id="paint13_radial_369_1917" cx="0" cy="0" r="1" gradientUnits="userSpaceOnUse" gradientTransform="translate(16.3222 4.96977) rotate(180) scale(2.15229 6.0845)">
<stop stop-color="#A5D949"/>
<stop offset="1" stop-color="#80B93F"/>
</radialGradient>
<linearGradient id="paint14_linear_369_1917" x1="15.3633" y1="2.33331" x2="15.3633" y2="7.60519" gradientUnits="userSpaceOnUse">
<stop stop-color="#9CD740"/>
<stop offset="1" stop-color="#9CD740" stop-opacity="0"/>
</linearGradient>
<radialGradient id="paint15_radial_369_1917" cx="0" cy="0" r="1" gradientUnits="userSpaceOnUse" gradientTransform="translate(12.245 12.0668) rotate(-150.851) scale(8.70139 3.19316)">
<stop stop-color="#AAE057"/>
<stop offset="1" stop-color="#AAE057" stop-opacity="0"/>
</radialGradient>
<radialGradient id="paint16_radial_369_1917" cx="0" cy="0" r="1" gradientUnits="userSpaceOnUse" gradientTransform="translate(13.5353 7.87494) rotate(-150.858) scale(8.70326 3.19338)">
<stop stop-color="#AAE057"/>
<stop offset="1" stop-color="#AAE057" stop-opacity="0"/>
</radialGradient>
<radialGradient id="paint17_radial_369_1917" cx="0" cy="0" r="1" gradientUnits="userSpaceOnUse" gradientTransform="translate(21.0072 10.3579) rotate(139.185) scale(7.07913 3.12776)">
<stop stop-color="#AAE057"/>
<stop offset="1" stop-color="#AAE057" stop-opacity="0"/>
</radialGradient>
<radialGradient id="paint18_radial_369_1917" cx="0" cy="0" r="1" gradientUnits="userSpaceOnUse" gradientTransform="translate(21.1707 9.84444) rotate(123.495) scale(1.98032 0.45884)">
<stop stop-color="#ACE461"/>
<stop offset="1" stop-color="#ACE461" stop-opacity="0"/>
</radialGradient>
<radialGradient id="paint19_radial_369_1917" cx="0" cy="0" r="1" gradientUnits="userSpaceOnUse" gradientTransform="translate(21.7247 5.42368) rotate(139.185) scale(7.07913 3.12776)">
<stop stop-color="#AAE057"/>
<stop offset="1" stop-color="#AAE057" stop-opacity="0"/>
</radialGradient>
<radialGradient id="paint20_radial_369_1917" cx="0" cy="0" r="1" gradientUnits="userSpaceOnUse" gradientTransform="translate(21.8881 4.91026) rotate(123.495) scale(1.98032 0.45884)">
<stop stop-color="#ACE461"/>
<stop offset="1" stop-color="#ACE461" stop-opacity="0"/>
</radialGradient>
<radialGradient id="paint21_radial_369_1917" cx="0" cy="0" r="1" gradientUnits="userSpaceOnUse" gradientTransform="translate(18.5942 25.4848) rotate(-140.346) scale(7.0321 6.82827)">
<stop offset="0.171" stop-color="#FFBB7A"/>
<stop offset="1" stop-color="#CF7D5B"/>
</radialGradient>
<linearGradient id="paint22_linear_369_1917" x1="7.41035" y1="23.8705" x2="11.4021" y2="23.6211" gradientUnits="userSpaceOnUse">
<stop stop-color="#B17A60"/>
<stop offset="1" stop-color="#B17A60" stop-opacity="0"/>
</linearGradient>
<linearGradient id="paint23_linear_369_1917" x1="14.0061" y1="25.1016" x2="14.0061" y2="26.5235" gradientUnits="userSpaceOnUse">
<stop offset="0.011" stop-color="#D37082" stop-opacity="0"/>
<stop offset="1" stop-color="#D37082"/>
</linearGradient>
<linearGradient id="paint24_linear_369_1917" x1="14.0061" y1="20.9331" x2="14.0061" y2="21.4275" gradientUnits="userSpaceOnUse">
<stop stop-color="#C87156"/>
<stop offset="1" stop-color="#C87156" stop-opacity="0"/>
</linearGradient>
<radialGradient id="paint25_radial_369_1917" cx="0" cy="0" r="1" gradientUnits="userSpaceOnUse" gradientTransform="translate(18.5937 20.1797) rotate(-132.669) scale(6.76823 5.24206)">
<stop offset="0.313" stop-color="#FFBD80"/>
<stop offset="1" stop-color="#E09369"/>
</radialGradient>
<linearGradient id="paint26_linear_369_1917" x1="6.56248" y1="20.9961" x2="14.875" y2="20.9961" gradientUnits="userSpaceOnUse">
<stop stop-color="#AE7F61"/>
<stop offset="1" stop-color="#AE7F61" stop-opacity="0"/>
</linearGradient>
<linearGradient id="paint27_linear_369_1917" x1="14.0061" y1="20.6032" x2="14.0061" y2="20.9961" gradientUnits="userSpaceOnUse">
<stop stop-color="#D1556C" stop-opacity="0"/>
<stop offset="1" stop-color="#D1556C"/>
</linearGradient>
<linearGradient id="paint28_linear_369_1917" x1="14.0061" y1="17.2152" x2="14.0061" y2="17.777" gradientUnits="userSpaceOnUse">
<stop stop-color="#E6AB68"/>
<stop offset="1" stop-color="#E6AB68" stop-opacity="0"/>
</linearGradient>
<linearGradient id="paint29_linear_369_1917" x1="-nan" y1="-nan" x2="-nan" y2="-nan" gradientUnits="userSpaceOnUse">
<stop stop-color="#FCD08F" stop-opacity="0"/>
<stop offset="0.287" stop-color="#FFCD91"/>
<stop offset="0.795" stop-color="#FCD08F" stop-opacity="0"/>
</linearGradient>
<linearGradient id="paint30_linear_369_1917" x1="16.0343" y1="2.21598" x2="16.0343" y2="8.37948" gradientUnits="userSpaceOnUse">
<stop stop-color="#B9EE6E"/>
<stop offset="1" stop-color="#B9EE6E" stop-opacity="0"/>
</linearGradient>
<radialGradient id="paint31_radial_369_1917" cx="0" cy="0" r="1" gradientUnits="userSpaceOnUse" gradientTransform="translate(11.69 7.01362) rotate(131.285) scale(0.74596 132.895)">
<stop stop-color="#B3E468"/>
<stop offset="1" stop-color="#B3E468" stop-opacity="0"/>
</radialGradient>
<radialGradient id="paint32_radial_369_1917" cx="0" cy="0" r="1" gradientUnits="userSpaceOnUse" gradientTransform="translate(10.4649 11.3887) rotate(131.285) scale(0.74596 132.895)">
<stop stop-color="#B3E468"/>
<stop offset="1" stop-color="#B3E468" stop-opacity="0"/>
</radialGradient>
</defs>
</svg>
