<svg width="143" height="143" viewBox="0 0 143 143" fill="none" xmlns="http://www.w3.org/2000/svg">
<path d="M71.489 18.8022C58.753 18.4782 48.5307 23.9971 48.5307 23.9971C48.5307 23.9971 35.549 4.59157 17.2271 18.333C-1.64215 32.4877 16.1211 52.7759 16.1211 52.7759C16.1211 52.7759 3.25113 68.5505 4.33481 88.6376C5.49668 110.177 16.9143 135.582 72.9078 134.643C128.901 133.705 138.621 109.239 138.498 88.012C138.375 67.5674 128.745 55.6135 128.745 55.6135C128.745 55.6135 146.206 36.5878 131.571 21.6398C116.936 6.69188 100.268 26.8348 100.268 26.8348C100.268 26.8348 89.889 19.2714 71.489 18.8022Z" fill="#4D4D4D"/>
<path d="M70.9081 22.9136C60.3507 22.9136 47.4248 25.0921 29.9743 42.0733C12.5239 59.0546 4.17849 79.0411 9.37341 98.5472C14.5683 118.053 30.2872 131.415 72.7515 130.946C115.216 130.476 129.326 117.919 133.929 96.3463C135.649 88.2802 135.023 74.3042 127.952 61.1214C118.679 43.8161 97.8323 22.9136 70.9081 22.9136Z" fill="white"/>
<path d="M59.8028 55.7141C51.1223 50.4187 42.0842 56.027 35.2694 65.2549C29.326 73.2987 23.2932 75.9352 22.7904 84.3365C22.3659 91.3636 27.6167 101.429 38.5204 101.429C48.4857 101.429 50.6866 91.9892 55.3006 85.5989C59.9034 79.1974 72.7846 63.635 59.8028 55.7141ZM80.9847 57.6022C75.3317 62.7413 76.4713 71.2319 80.6719 76.5832C84.8725 81.9345 87.4756 84.9174 89.2743 88.2243C91.6315 92.5702 100.01 108.68 113.495 98.0779C127.225 87.2747 116.88 74.0919 113.707 70.8185C112.467 69.5449 101.284 57.8145 99.1278 56.0381C96.3461 53.7256 89.0508 50.2623 80.9847 57.6022Z" fill="#4D4D4D"/>
<path d="M104.569 74.8963C104.926 80.471 102.993 85.2749 98.0667 85.6995C93.2739 86.1017 88.9504 81.8899 88.1014 76.371C87.2635 70.8521 89.8889 66.3051 95.1285 66.0928C99.9436 65.9029 104.155 68.3942 104.569 74.8963ZM52.5636 81.7111C49.9271 85.6324 44.2629 86.515 40.0846 83.3869C37.1464 81.186 36.4873 74.8628 39.1462 70.2823C41.9503 65.4449 47.6592 64.7634 51.9157 67.7798C55.2896 70.1817 56.2392 76.2592 52.5636 81.7111Z" fill="#040301"/>
<path d="M90.8387 70.9191C89.6433 73.8238 90.4142 77.6334 92.6262 77.5217C95.4527 77.3876 94.5142 75.008 95.4527 73.8573C96.3911 72.7066 98.0781 70.2935 96.2906 68.9305C94.045 67.1989 91.576 69.1316 90.8387 70.9191ZM41.5596 70.2823C39.5821 73.4104 40.0067 76.1364 41.135 77.0971C42.8667 78.5607 44.967 76.5162 46.3299 74.0025C47.6929 71.4889 49.4246 69.3327 47.3242 67.7686C45.8384 66.6626 42.8108 68.2937 41.5596 70.2823Z" fill="#E0E0E0"/>
<path d="M71.1311 90.939C64.8414 91.0172 57.4009 95.2402 57.2892 97.3405C57.1886 99.4408 60.4396 101.854 62.6405 103.53C64.2828 104.781 67.8801 106.781 67.5673 107.831C67.2545 108.881 64.8302 110.054 62.216 110.345C58.7527 110.736 54.2057 107.674 53.0886 106.881C51.7479 105.943 48.6868 107.272 50.1057 110.032C51.5133 112.769 54.2504 114.568 57.1886 115.305C60.3614 116.098 62.1154 115.908 62.1154 115.908C62.1154 115.908 65.1765 120.265 70.9189 120.734C77.4209 121.259 80.5602 115.495 80.5602 115.495C80.5602 115.495 84.5039 116.109 87.0622 115.182C90.5255 113.92 91.855 111.696 92.7264 109.942C93.7318 107.898 92.3577 105.004 89.062 107.116C86.4366 108.792 85.1853 110.68 79.9904 110.445C76.7729 110.3 75.4323 108.267 75.4323 107.429C75.4323 106.591 79.3089 104.278 81.6215 102.602C83.9453 100.904 85.7104 99.0386 85.811 97.4634C85.9115 95.8658 79.4095 90.8384 71.1311 90.939Z" fill="#030200"/>
<path d="M71.4886 111.048C71.4886 111.048 69.9692 112.959 69.3436 113.383C68.718 113.808 66.6177 114.981 66.6177 114.981C66.6177 114.981 68.2264 116.78 70.3156 117.025C74.3263 117.495 75.9797 115.215 75.9797 115.215C75.9797 115.215 75.0636 114.478 74.0135 113.718C73.0527 113.026 71.4886 111.048 71.4886 111.048Z" fill="#FDA4A5"/>
</svg>
