<svg width="19" height="20" viewBox="0 0 19 20" fill="none" xmlns="http://www.w3.org/2000/svg">
<path d="M10.207 16.5524C10.17 16.5879 10.1291 16.6129 10.0842 16.6274C10.0389 16.6429 9.99136 16.6507 9.94175 16.6507C9.89214 16.6507 9.83989 16.6424 9.785 16.6257C9.73011 16.609 9.6834 16.5804 9.64488 16.5399C9.22582 16.046 8.89517 15.5143 8.65292 14.9449C8.41067 14.3754 8.28954 13.7707 8.28954 13.1307C8.28954 12.6663 8.35208 12.1788 8.47717 11.6682C8.60225 11.1577 8.82761 10.4938 9.15325 9.67655C9.42611 8.93766 9.62192 8.35266 9.74067 7.92155C9.85942 7.48933 9.91879 7.08933 9.91879 6.72155C9.91879 6.24044 9.81983 5.78155 9.62192 5.34488C9.424 4.90822 9.11393 4.47655 8.69171 4.04988C8.65476 4.00766 8.62547 3.95794 8.60383 3.90072C8.58219 3.84349 8.57137 3.78655 8.57137 3.72988C8.57137 3.68266 8.5785 3.63544 8.59275 3.58822C8.607 3.54099 8.63075 3.49683 8.664 3.45572C8.70464 3.41516 8.75108 3.3821 8.80333 3.35655C8.85611 3.33099 8.91021 3.31822 8.96562 3.31822C9.02104 3.31822 9.07039 3.33016 9.11367 3.35405C9.15694 3.37794 9.19653 3.41016 9.23242 3.45072C9.68103 3.90294 10.0394 4.40405 10.3075 4.95405C10.5756 5.50405 10.7099 6.09183 10.7105 6.71738C10.7105 7.15516 10.6492 7.61488 10.5268 8.09655C10.4038 8.57766 10.1906 9.20599 9.88713 9.98155C9.57732 10.7615 9.36568 11.379 9.25221 11.834C9.13821 12.2896 9.08121 12.7185 9.08121 13.1207C9.08121 13.6257 9.17436 14.1127 9.36067 14.5815C9.54697 15.0504 9.83804 15.5088 10.2339 15.9565C10.2677 15.9982 10.2946 16.0438 10.3146 16.0932C10.3347 16.1427 10.3447 16.1957 10.3447 16.2524C10.3447 16.309 10.3326 16.3627 10.3083 16.4132C10.284 16.4638 10.2502 16.5096 10.207 16.5524ZM13.7465 16.5507C13.7096 16.5879 13.6687 16.6168 13.6238 16.6374C13.5789 16.6579 13.5291 16.6677 13.4742 16.6665C13.4193 16.6654 13.3665 16.654 13.3158 16.6324C13.2652 16.6107 13.2214 16.5799 13.1844 16.5399C12.7654 16.0565 12.4321 15.5285 12.1845 14.9557C11.937 14.3829 11.8135 13.7802 11.814 13.1474C11.814 12.689 11.879 12.1993 12.0088 11.6782C12.1386 11.1571 12.3666 10.4899 12.6928 9.67655C12.9757 8.92766 13.1741 8.34294 13.2881 7.92238C13.4021 7.50183 13.4589 7.10933 13.4583 6.74488C13.4583 6.2521 13.3594 5.78488 13.1615 5.34322C12.9635 4.90099 12.6535 4.46988 12.2312 4.04988C12.1927 4.00599 12.1637 3.95683 12.1442 3.90238C12.1252 3.84794 12.1157 3.79183 12.1157 3.73405C12.1157 3.68405 12.122 3.63877 12.1347 3.59822C12.1473 3.55766 12.1708 3.51572 12.2051 3.47238C12.2458 3.4296 12.2933 3.39572 12.3476 3.37072C12.402 3.34572 12.4553 3.33322 12.5075 3.33322C12.5598 3.33322 12.6073 3.34377 12.65 3.36488C12.6928 3.38599 12.7334 3.4146 12.772 3.45072C13.2206 3.90238 13.5789 4.40322 13.847 4.95322C14.1152 5.50322 14.2495 6.09099 14.25 6.71655C14.25 7.15433 14.1883 7.61127 14.0648 8.08738C13.9418 8.56349 13.7241 9.20155 13.4116 10.0015C13.1018 10.7921 12.8902 11.4096 12.7767 11.854C12.6632 12.2985 12.6062 12.7199 12.6057 13.1182C12.6057 13.6165 12.7047 14.101 12.9026 14.5715C13.1005 15.0421 13.3974 15.5102 13.7932 15.9757C13.8238 16.0163 13.8468 16.0604 13.8621 16.1082C13.8774 16.1554 13.885 16.2027 13.885 16.2499C13.885 16.3043 13.8726 16.3585 13.8478 16.4124C13.8236 16.4663 13.7898 16.5129 13.7465 16.5507ZM6.66742 16.5499C6.63047 16.5871 6.58957 16.616 6.54471 16.6365C6.49985 16.6571 6.44971 16.6671 6.39429 16.6665C6.33887 16.666 6.28636 16.6546 6.23675 16.6324C6.18714 16.6102 6.14333 16.5793 6.10533 16.5399C5.68575 16.0565 5.3551 15.5285 5.11338 14.9557C4.87113 14.3829 4.75 13.7802 4.75 13.1474C4.75 12.689 4.81254 12.1993 4.93762 11.6782C5.06271 11.1571 5.28807 10.4899 5.61371 9.67655C5.8966 8.92766 6.09478 8.34294 6.20825 7.92238C6.32225 7.50183 6.37925 7.10933 6.37925 6.74488C6.37925 6.2521 6.28029 5.78488 6.08238 5.34322C5.88446 4.90099 5.57439 4.46988 5.15217 4.04988C5.10889 4.00599 5.07801 3.95683 5.05954 3.90238C5.04107 3.84794 5.03183 3.79349 5.03183 3.73905C5.03183 3.68461 5.03896 3.63405 5.05321 3.58738C5.06746 3.54072 5.09121 3.49655 5.12446 3.45488C5.1651 3.41433 5.21207 3.38127 5.26538 3.35572C5.31868 3.33016 5.37014 3.31738 5.41975 3.31738C5.46936 3.31738 5.51739 3.32933 5.56383 3.35322C5.61028 3.37711 5.65329 3.4096 5.69288 3.45072C6.14149 3.90238 6.49985 4.40322 6.76796 4.95322C7.03607 5.50322 7.17039 6.09349 7.17092 6.72405C7.17092 7.14627 7.11233 7.59544 6.99517 8.07155C6.87906 8.5471 6.66478 9.18572 6.35233 9.98738C6.05256 10.7629 5.84329 11.3782 5.72454 11.8332C5.60579 12.2882 5.54642 12.7171 5.54642 13.1199C5.54642 13.6277 5.64194 14.1177 5.833 14.5899C6.02406 15.0621 6.31776 15.524 6.71413 15.9757C6.74421 16.0163 6.7669 16.0604 6.78221 16.1082C6.79804 16.1554 6.80596 16.2027 6.80596 16.2499C6.80596 16.3043 6.79356 16.3585 6.76875 16.4124C6.74447 16.4663 6.71069 16.5121 6.66742 16.5499Z" fill="black"/>
</svg>
