<svg width="19" height="20" viewBox="0 0 19 20" fill="none" xmlns="http://www.w3.org/2000/svg">
<path d="M1.58325 3.3335H17.4166M2.37492 6.67516L2.38284 6.666M2.37492 13.3418L2.38284 13.3327M4.74992 10.0085L4.75784 9.99933M4.74992 16.6752L4.75784 16.666M7.12492 6.67516L7.13284 6.666M7.12492 13.3418L7.13284 13.3327M9.49992 10.0085L9.50784 9.99933M9.49992 16.6752L9.50784 16.666M11.8749 6.67516L11.8828 6.666M11.8749 13.3418L11.8828 13.3327M14.2499 10.0085L14.2578 9.99933M14.2499 16.6752L14.2578 16.666M16.6249 6.67516L16.6328 6.666M16.6249 13.3418L16.6328 13.3327" stroke="black" stroke-width="1.5" stroke-linecap="round" stroke-linejoin="round"/>
</svg>
